<?xml version="1.0" encoding="UTF-8" standalone="no"?>
<!-- Created with Inkscape (http://www.inkscape.org/) -->

<svg
   width="32"
   height="32"
   viewBox="0 0 8.4666666 8.466667"
   version="1.1"
   id="svg10"
   inkscape:version="1.1.2 (0a00cf5339, 2022-02-04)"
   sodipodi:docname="neto-paiva_logo.svg"
   xmlns:inkscape="http://www.inkscape.org/namespaces/inkscape"
   xmlns:sodipodi="http://sodipodi.sourceforge.net/DTD/sodipodi-0.dtd"
   xmlns="http://www.w3.org/2000/svg"
   xmlns:svg="http://www.w3.org/2000/svg">
  <sodipodi:namedview
     id="namedview12"
     pagecolor="#ffffff"
     bordercolor="#666666"
     borderopacity="1.0"
     inkscape:pageshadow="2"
     inkscape:pageopacity="0.0"
     inkscape:pagecheckerboard="0"
     inkscape:document-units="px"
     showgrid="false"
     units="px"
     width="320px"
     inkscape:zoom="19.555922"
     inkscape:cx="13.883263"
     inkscape:cy="16.900252"
     inkscape:current-layer="layer1"
     inkscape:snap-global="false" />
  <defs
     id="defs7" />
  <g
     inkscape:label="Camada 1"
     inkscape:groupmode="layer"
     id="layer1">
    <path
       id="path823-3"
       style="fill:#000000;fill-opacity:1;fill-rule:evenodd;stroke-width:0.0502863"
       d="M 4.2466342,0.02524774 A 4.2069133,4.206868 0 0 0 2.413871,0.44579208 L 2.462368,0.78206559 C 2.513644,1.1372044 2.517326,1.1468285 2.6024792,1.1452227 2.6505782,1.1443454 3.1379083,1.0706444 3.6853904,0.9815092 L 4.6808201,0.8194731 4.7736361,0.44384749 C 4.8163651,0.27109337 4.8463771,0.12021265 4.8493601,0.06902558 A 4.2069133,4.206868 0 0 0 4.2467238,0.02525344 Z m 1.2489782,0.18999195 -0.049201,0.23551317 -0.053664,0.25682998 0.105588,-0.0211148 c 0.1619627,-0.0323959 0.469682,-0.0655551 0.4697504,-0.0506091 3.1e-5,0.007314 0.022954,0.143798 0.050983,0.30329011 0.031098,0.17699535 0.038454,0.29778805 0.018677,0.30999345 -0.017792,0.011003 -0.7899213,0.1423616 -1.7158477,0.2918932 -1.3455846,0.2173071 -1.6834528,0.2821148 -1.6834528,0.3229329 0,0.052271 0.1272423,0.8900932 0.1547976,1.0192127 0.015296,0.071518 0.015598,0.07155 0.7041987,-0.039823 0.3789127,-0.061287 0.7089424,-0.1191212 0.7334282,-0.1285163 0.024645,-0.00944 0.072846,-0.1566633 0.1078724,-0.3290992 0.034875,-0.1716154 0.074531,-0.3300291 0.088048,-0.3520296 0.013605,-0.022006 0.1728149,-0.066327 0.353847,-0.098481 0.2613099,-0.04642 0.3291636,-0.049345 0.3291636,-0.014207 0,0.024335 -0.031905,0.1783793 -0.070755,0.3423077 -0.038953,0.163929 -0.062113,0.3067086 -0.05158,0.317301 0.010526,0.010587 0.123545,0.00326 0.2509944,-0.016222 0.1274576,-0.019523 0.2344493,-0.033541 0.237728,-0.031172 0.015799,0.011372 0.1111711,0.6189663 0.099079,0.6310487 -0.00795,0.00763 -0.6059065,0.1077959 -1.329494,0.2225742 C 3.5221968,3.5016407 2.9243796,3.600013 2.9172946,3.6054814 2.9016966,3.6175174 3.1102824,4.959741 3.1309534,4.9804078 3.1576874,5.0071678 3.7487539,4.8900958 3.7713317,4.8535681 3.7835487,4.8337631 3.8371177,4.6167422 3.8903945,4.3712826 3.9436595,4.125822 3.9972526,3.9187744 4.0095258,3.9111853 c 0.032194,-0.019885 0.6599961,-0.1267492 0.672289,-0.1144378 0.00596,0.00564 -0.036769,0.2155958 -0.094208,0.466465 -0.057437,0.2508726 -0.095797,0.4647552 -0.085266,0.4753158 0.010526,0.010546 0.4557987,-0.053686 0.989389,-0.1427276 C 6.2404584,4.4708533 6.5171512,4.4377069 6.704037,4.4505255 7.4581631,4.5022488 8.0328152,5.1732129 7.9856613,5.9469303 l -0.01431,0.2344393 A 4.2069133,4.206868 0 0 0 8.4534377,4.2321792 4.2069133,4.206868 0 0 0 5.4955295,0.21526354 Z M 1.5912158,0.97098431 A 4.2069133,4.206868 0 0 0 0.03968754,4.2321555 4.2069133,4.206868 0 0 0 0.4629111,6.0697961 C 0.54489508,5.770301 1.5562955,1.1971189 1.5912158,0.97098431 Z M 2.0244961,2.2967721 C 1.992195,2.3013006 1.8530418,2.8744846 1.4771129,4.5432895 L 0.9566008,6.8537643 a 4.2069133,4.206868 0 0 0 1.9565948,1.3656089 c 0.015497,-4.97e-4 0.024645,-0.00483 0.026734,-0.013928 0.010727,-0.046738 -0.8686064,-5.7480714 -0.9103541,-5.9021519 -9.47e-4,-0.00461 -0.00294,-0.00684 -0.00495,-0.00644 z M 6.6201516,5.094293 c -0.1439554,-0.00169 -1.625931,0.2399372 -1.6812443,0.2741267 -0.027624,0.017047 0.030713,0.4326261 0.2034031,1.4482045 0.1331736,0.7833566 0.2421499,1.4345566 0.2421499,1.4470617 0,0.00628 0.00199,0.01105 0.00489,0.014491 A 4.2069133,4.206868 0 0 0 7.3734225,7.0436251 c -0.00294,-0.00288 -0.016886,0.00384 -0.042537,0.020511 C 6.9893164,7.2871982 6.4458683,7.3415816 6.0708535,7.1902396 5.5427092,6.9770996 5.1685086,6.4674229 5.1629142,5.9536138 L 5.1609242,5.8004263 5.4012056,5.7583879 C 5.8188227,5.6852419 5.812642,5.6831507 5.8157824,5.8995759 5.8197724,6.1452841 5.9567268,6.3742431 6.1853819,6.5156086 6.3217963,6.599947 6.3862537,6.6172901 6.5620888,6.6167708 7.0141602,6.6154769 7.3423996,6.2827331 7.3398252,5.8282469 7.3378377,5.4664236 6.9768343,5.0985069 6.6197378,5.0942894 Z M 4.2292722,5.4850025 c -0.1176499,0.00731 -0.9759023,0.1498907 -0.9924677,0.1664629 -0.00596,0.00596 0.022552,0.233885 0.063306,0.5064879 l 0.074134,0.4956296 0.06201,-0.2719166 C 3.4703345,6.2321278 3.5142675,6.0998791 3.5338405,6.0877639 3.5871055,6.0548267 4.149406,5.9759325 4.1717357,5.998267 4.1823627,6.0088737 4.0732547,6.5396908 3.9292488,7.1777713 3.7852532,7.8158535 3.667532,8.3562861 3.6677904,8.3787972 c 4.93e-5,0.00684 0.007,0.013787 0.016786,0.020511 a 4.2069133,4.206868 0 0 0 0.5619317,0.03969 4.2069133,4.206868 0 0 0 0.4752563,-0.0299 C 4.7340815,8.3524254 4.2684301,5.5115378 4.2422847,5.4854006 4.241487,5.4846032 4.2373335,5.4845034 4.2291621,5.4850005 Z" />
  </g>
</svg>
