<?xml version="1.0" encoding="UTF-8" standalone="no"?>
<!-- Created with Inkscape (http://www.inkscape.org/) -->

<svg
   width="64"
   height="64"
   viewBox="0 0 16.933333 16.933334"
   version="1.1"
   id="svg10"
   inkscape:version="1.1.2 (0a00cf5339, 2022-02-04)"
   sodipodi:docname="neto-paiva_icon.svg"
   xmlns:inkscape="http://www.inkscape.org/namespaces/inkscape"
   xmlns:sodipodi="http://sodipodi.sourceforge.net/DTD/sodipodi-0.dtd"
   xmlns="http://www.w3.org/2000/svg"
   xmlns:svg="http://www.w3.org/2000/svg">
  <sodipodi:namedview
     id="namedview12"
     pagecolor="#ffffff"
     bordercolor="#666666"
     borderopacity="1.0"
     inkscape:pageshadow="2"
     inkscape:pageopacity="0.0"
     inkscape:pagecheckerboard="0"
     inkscape:document-units="px"
     showgrid="false"
     units="px"
     width="320px"
     inkscape:zoom="8.0727273"
     inkscape:cx="31.525901"
     inkscape:cy="34.870495"
     inkscape:current-layer="layer1"
     inkscape:snap-global="true"
     inkscape:snap-page="true" />
  <defs
     id="defs7" />
  <g
     inkscape:label="Camada 1"
     inkscape:groupmode="layer"
     id="layer1">
    <circle
       style="fill:#ffffff;fill-rule:evenodd;stroke-width:0.264672"
       id="path209"
       cx="8.4666672"
       cy="8.4666672"
       r="8.4666672" />
    <path
       id="path823-3"
       style="fill:#000000;fill-opacity:1;fill-rule:evenodd;stroke-width:0.100889"
       d="M 8.4800397,0.03959802 A 8.4402852,8.4402852 0 0 0 4.8029867,0.88334077 L 4.9002855,1.55801 C 5.0031636,2.2705288 5.0105484,2.2898378 5.1813872,2.286616 5.2778835,2.2848532 6.2556126,2.1369888 7.3540199,1.9581557 L 9.3511408,1.6330611 9.5373589,0.8794393 C 9.6230881,0.53284086 9.683302,0.23012718 9.6892833,0.12742998 A 8.4402852,8.4402852 0 0 0 8.4802192,0.03960945 Z m 2.5058113,0.38118291 -0.09871,0.47251268 -0.107662,0.51528079 0.211838,-0.042363 c 0.324945,-0.064996 0.942318,-0.1315238 0.942455,-0.1015377 6.2e-5,0.014673 0.04605,0.2885036 0.102288,0.6084943 0.06239,0.3551077 0.07715,0.5974554 0.03749,0.6219433 -0.03569,0.022075 -1.584811,0.2856216 -3.4424872,0.5856285 -2.6996471,0.4359856 -3.3775081,0.56601 -3.3775081,0.6479039 0,0.1048712 0.2552817,1.7858041 0.310569,2.0448577 0.030698,0.1434862 0.03131,0.14355 1.4128261,-0.079893 C 7.7371584,5.5706488 8.3992932,5.454614 8.4484188,5.4357645 8.4978653,5.4168171 8.5945685,5.1214503 8.6648422,4.7754886 8.734811,4.4311757 8.8143734,4.1133477 8.8414908,4.0692078 c 0.02731,-0.04415 0.3467154,-0.1330708 0.70992,-0.1975822 0.5242632,-0.093132 0.6603972,-0.099002 0.6603972,-0.028503 0,0.048823 -0.06401,0.3578845 -0.141956,0.6867751 C 9.9917,4.8587885 9.9452337,5.1452505 9.9663687,5.1665025 c 0.021134,0.021261 0.2478653,0.00654 0.5035673,-0.032538 0.25572,-0.039157 0.470373,-0.067293 0.476951,-0.06254 0.03169,0.022809 0.223042,1.241839 0.19878,1.2660799 -0.01595,0.015312 -1.2156242,0.216271 -2.6673497,0.4465531 C 7.0266138,7.0143399 5.8272194,7.2117031 5.813005,7.2226746 5.781715,7.2468383 6.2001949,9.9397406 6.241666,9.9812046 6.2953031,10.034892 7.4811529,9.8000104 7.5264507,9.726723 7.5509834,9.6869914 7.6584371,9.2515766 7.7653264,8.7591083 7.8721907,8.266638 7.9797165,7.8512362 8.0043385,7.83601 8.0689336,7.796119 9.3284819,7.5817113 9.3531449,7.6064119 9.3651055,7.6177359 9.2793763,8.0389638 9.1641377,8.542286 9.048899,9.0456143 8.9719363,9.4747291 8.9930693,9.4959168 9.0142035,9.517081 9.9075333,9.3882062 10.97807,9.2095603 c 1.502166,-0.250686 2.057292,-0.3171856 2.432239,-0.2914701 1.512995,0.1037705 2.665913,1.4499358 2.571309,3.0022538 l -0.02872,0.470358 A 8.4402852,8.4402852 0 0 0 16.920104,8.480011 8.4402852,8.4402852 0 0 0 10.985685,0.4208288 Z M 3.152502,1.9370397 A 8.4402852,8.4402852 0 0 0 0.03968754,8.4799633 8.4402852,8.4402852 0 0 0 0.88879642,12.166842 C 1.05328,11.565962 3.0824419,2.390736 3.152502,1.9370397 Z M 4.0217874,4.5969823 C 3.9569818,4.6060756 3.677801,5.7560534 2.9235787,9.1041946 L 1.8792808,13.739726 a 8.4402852,8.4402852 0 0 0 3.9254952,2.739836 c 0.0311,-9.97e-4 0.049446,-0.0097 0.053637,-0.02797 C 5.879948,16.357822 4.1157376,4.9191736 4.0319794,4.6100398 c -0.0019,-0.00925 -0.00592,-0.013717 -0.00993,-0.01292 z m 9.2202146,5.6126967 c -0.288816,-0.0034 -3.2620877,0.481389 -3.3730623,0.549984 -0.055422,0.03423 0.061618,0.867982 0.4080853,2.905548 0.267187,1.571657 0.485823,2.878167 0.485823,2.903256 0,0.0126 0.004,0.02217 0.0098,0.02906 a 8.4402852,8.4402852 0 0 0 3.980624,-2.476881 c -0.0059,-0.0058 -0.03389,0.0077 -0.08534,0.04115 -0.685279,0.447533 -1.775593,0.556643 -2.527981,0.253004 -1.05961,-0.427625 -1.810365,-1.450195 -1.821589,-2.481056 l -0.004,-0.307338 0.482074,-0.08434 c 0.837861,-0.146756 0.825461,-0.150952 0.831761,0.283264 0.008,0.492967 0.282778,0.95233 0.741524,1.235953 0.273683,0.169209 0.403,0.204007 0.755778,0.202964 0.906986,-0.0026 1.565529,-0.670187 1.560364,-1.582028 -0.004,-0.72593 -0.728265,-1.464085 -1.444704,-1.472547 z m -4.7967954,0.783885 c -0.2360415,0.01468 -1.9579428,0.300728 -1.9911778,0.333976 -0.011961,0.01196 0.045246,0.469246 0.1270108,1.016172 l 0.1487332,0.994387 0.1244101,-0.545549 c 0.068375,-0.300023 0.1565172,-0.565353 0.1957876,-0.58966 0.1068652,-0.06608 1.2350025,-0.224366 1.279802,-0.17956 0.021324,0.02129 -0.1975821,1.086265 -0.4864988,2.366453 -0.2888976,1.280191 -0.5250795,2.364467 -0.5245612,2.409631 9.93e-5,0.01371 0.014036,0.02769 0.033686,0.04115 a 8.4402852,8.4402852 0 0 0 1.1273973,0.07963 8.4402852,8.4402852 0 0 0 0.9535018,-0.05999 c 0.024723,-0.113699 -0.9095192,-5.813402 -0.9619744,-5.865841 -0.0016,-0.0016 -0.00993,-0.0018 -0.026317,-8.03e-4 z" />
  </g>
</svg>
