<?xml version="1.0" encoding="utf-8"?>
<!-- Generator: Adobe Illustrator 22.1.0, SVG Export Plug-In . SVG Version: 6.00 Build 0)  -->
<svg version="1.1" id="Layer_1" xmlns="http://www.w3.org/2000/svg" xmlns:xlink="http://www.w3.org/1999/xlink" x="0px" y="0px"
	 viewBox="0 0 32 32" style="enable-background:new 0 0 32 32;" xml:space="preserve">
<title>krita</title>
<path d="M0.9,1C0.6,1,0.4,1.1,0.2,1.3c-0.5,0.6,0,1.2,0.5,1.7C1,3.3,3,5.4,5.3,7.7c0.7-1,1.5-1.9,2.4-2.6C4.9,3.4,2.3,1.7,1.9,1.5
	C1.6,1.2,1.2,1,0.9,1L0.9,1z M7.7,5.1c2.5,1.5,5,3.1,6.3,3.8c2,1.1,5,3.6,5.5,5.9c0.7,0.6,2.9,2.6,3.5,3.2c0.9-0.3,2,0.2,2.7,1.5
	c1.2,2.1,0.3,5-2.6,6.7c-0.1,0.1-0.3,0.2-0.4,0.4l0.4-0.4c1.5-2-1-3.2-1.6-5.2c-0.1-0.3-0.2-0.7-0.1-1c-0.7-0.4-2.8-1.9-3.7-2.6
	c-2.4,0.2-5.6-2.4-7.1-4.1c-0.9-1.1-3.1-3.4-5.1-5.5c-1.8,2.5-2.7,5.5-2.7,8.5c0,6,3.6,11.3,9.1,13.6c5.5,2.3,11.8,1,16.1-3.2
	s5.5-10.6,3.2-16.1c-2.3-5.5-7.7-9.1-13.6-9.1C13.7,1.5,10.3,2.8,7.7,5.1z M19.3,15.2c-0.7,0.2-1.3,1.1-1.5,1.7
	c0,0.2-0.1,0.4,0.1,0.5c1.1,0.8,2.1,1.6,3.2,2.3c0.2-0.5,1-1.3,1.5-1.6L19.3,15.2z M3.9,17.3c1.1,2.5,7.7,9.6,16.1,3.6
	c0,0.3,0,0.6,0.2,1c0.6,1.9,3.2,3.2,1.7,5.2c-2.8,1.8-6.7,1.6-9.3,0.7C7.7,26.2,4.6,22,3.9,17.3z M22.3,18.3
	C22.3,18.3,22.2,18.3,22.3,18.3C22.2,18.3,22.2,18.4,22.3,18.3C22.2,18.3,22.2,18.3,22.3,18.3C22.2,18.3,22.3,18.3,22.3,18.3z"/>
</svg>
