<?xml version="1.0" encoding="UTF-8" standalone="no"?>
<svg
   width="32"
   height="32"
   viewBox="0 0 32 32"
   fill="none"
   version="1.1"
   id="svg11"
   sodipodi:docname="icone_ferramentas.svg"
   inkscape:version="1.1.2 (0a00cf5339, 2022-02-04)"
   xmlns:inkscape="http://www.inkscape.org/namespaces/inkscape"
   xmlns:sodipodi="http://sodipodi.sourceforge.net/DTD/sodipodi-0.dtd"
   xmlns="http://www.w3.org/2000/svg"
   xmlns:svg="http://www.w3.org/2000/svg">
  <sodipodi:namedview
     id="namedview13"
     pagecolor="#ffffff"
     bordercolor="#666666"
     borderopacity="1.0"
     inkscape:pageshadow="2"
     inkscape:pageopacity="0.0"
     inkscape:pagecheckerboard="0"
     showgrid="false"
     inkscape:zoom="16.15625"
     inkscape:cx="14.731141"
     inkscape:cy="14.762089"
     inkscape:current-layer="svg11" />
  <defs
     id="defs9">
    <clipPath
       id="clip0_25207_784">
      <rect
         width="32"
         height="32"
         fill="white"
         id="rect6" />
    </clipPath>
  </defs>
  <path
     style="fill:#2a7ae4;fill-opacity:1;stroke-width:0.0547099"
     d="M 6.1846053,29.936069 C 5.1625825,29.745864 4.3420975,29.32643 3.5738076,28.601421 2.9075892,27.972732 2.4122759,27.140959 2.151638,26.213186 L 2.0286606,25.775432 2.0113355,19.72898 c -0.012502,-4.363233 3.34e-5,-6.137853 0.04503,-6.37477 0.091859,-0.483666 0.3467627,-0.971429 0.7114897,-1.361454 0.540677,-0.578178 1.1979765,-0.854668 2.0318101,-0.854668 H 5.2820429 V 9.5785961 8.0191021 H 3.9629991 c -1.2421667,0 -1.3310585,-0.0068 -1.5251717,-0.1158936 C 2.3244572,7.8394715 2.1795679,7.6945311 2.1158506,7.581124 2.0028165,7.37994 2.0000006,7.317429 2.0000006,5.0095493 c 0,-2.3304495 0.00176,-2.3685182 0.1194714,-2.57802 C 2.195613,2.2960082 2.3209098,2.1791949 2.4649465,2.1094446 2.6850022,2.0028812 2.8026846,2.0000018 6.9367735,2.0000018 c 2.8233602,0 4.2974135,0.019195 4.3998125,0.057296 0.234122,0.087114 3.176904,3.0480825 3.250221,3.2703102 0.07937,0.2405478 0.02203,0.5161486 -0.149882,0.720524 -0.07694,0.091461 -0.806488,0.5661925 -1.621228,1.0549518 l -1.481343,0.8886537 -0.564623,0.018665 -0.564624,0.01867 v 1.555775 1.5557745 l 0.970938,-0.01494 0.970938,-0.01495 0.02934,-0.412911 c 0.03502,-0.492573 0.160513,-0.7072435 0.490704,-0.8394045 0.192053,-0.07687 0.553169,-0.08829 2.789334,-0.08829 2.236164,0 2.597281,0.01143 2.789334,0.08829 0.33019,0.132161 0.455684,0.3468315 0.490704,0.8394045 l 0.02935,0.412911 1.203416,0.01469 1.203415,0.01469 -0.300853,-0.259975 C 20.211841,10.309896 19.757574,9.7198165 19.441279,9.0220095 18.864898,7.7504041 18.846177,6.1811167 19.392089,4.8978355 c 0.501296,-1.1784213 1.580908,-2.2564463 2.737623,-2.7335974 0.473869,-0.1954733 0.666765,-0.2036214 0.951719,-0.040202 0.407055,0.2334467 0.415949,0.2807603 0.415949,2.2129136 v 1.7093706 l 0.286448,0.1929707 c 0.157547,0.1061341 0.311721,0.1929694 0.342609,0.1929694 0.03089,0 0.185065,-0.086839 0.342611,-0.1929694 L 24.755496,6.0463134 V 4.3497198 c 0,-1.8782975 0.01261,-1.9605896 0.33569,-2.1910957 0.294022,-0.2097722 0.62625,-0.181582 1.219362,0.1034659 0.622168,0.2990119 1.059558,0.6132981 1.511544,1.0861179 0.420279,0.4396527 0.62227,0.725393 0.884306,1.2509596 0.384979,0.7721556 0.534556,1.4246881 0.534556,2.3320319 0,1.4658487 -0.556237,2.7158107 -1.674134,3.7620766 l -0.475275,0.444817 h 0.298967 c 1.171385,0 2.329391,1.002498 2.559887,2.216123 0.04499,0.236917 0.05753,2.011537 0.04503,6.374769 l -0.01733,6.046453 -0.122978,0.437754 c -0.138692,0.493692 -0.467584,1.213423 -0.731619,1.601048 -0.256245,0.376183 -0.843347,0.973645 -1.226638,1.248282 -0.433725,0.310773 -1.144452,0.647932 -1.691806,0.802568 l -0.437605,0.12363 -9.599973,0.0093 c -7.6845783,0.0075 -9.6763725,-0.0049 -9.9828797,-0.06195 z m 3.3757534,-2.861057 c 0.01981,-1.183818 0.03252,-1.326386 0.142579,-1.600532 0.245687,-0.611915 0.7038713,-1.071303 1.3226793,-1.326152 l 0.300856,-0.123904 h 4.67691 4.676909 l 0.300855,0.123904 c 0.618809,0.254849 1.076992,0.714237 1.322679,1.326152 0.110062,0.274146 0.12277,0.416714 0.14258,1.600532 l 0.02174,1.299577 h 1.435776 c 1.249928,0 1.490369,-0.01398 1.857543,-0.107905 1.244268,-0.318336 2.178172,-1.252553 2.496401,-2.497239 0.09958,-0.389453 0.107869,-0.612764 0.107869,-2.902873 V 20.385606 H 16.003383 3.641022 v 2.480962 c 0,2.29011 0.00829,2.513421 0.1078689,2.902874 0.3155149,1.234065 1.2468215,2.172836 2.4748538,2.494687 0.3423232,0.08972 0.6039215,0.10486 1.856666,0.107438 l 1.458201,0.003 z m 11.2566863,0.199785 c 0,-1.212802 -0.03323,-1.371069 -0.323853,-1.542806 -0.14533,-0.08588 -0.50496,-0.09336 -4.489809,-0.09336 -3.984849,0 -4.344481,0.0075 -4.489811,0.09336 -0.29063,0.17174 -0.323852,0.330006 -0.323852,1.542808 v 1.099792 h 4.813663 4.813662 z M 5.2820429,15.753818 v -3.044934 l -0.4112279,0.03478 c -0.6146318,0.05197 -0.9614722,0.265597 -1.1451312,0.705303 -0.072343,0.173199 -0.084662,0.577157 -0.084662,2.776244 v 2.573553 H 4.4615321 5.2820427 Z M 8.5640857,13.408929 V 8.0191021 H 7.7435748 6.9230642 v 5.3898269 5.389827 h 0.8205106 0.8205109 z m 3.5828973,2.352919 v -3.009547 l -0.970938,-0.01495 -0.970938,-0.01494 v 3.039433 3.039432 l 0.970938,-0.01494 0.970938,-0.01495 z m 4.950414,-0.656628 v -3.693537 h -1.641021 -1.641023 v 0.595545 0.595546 l 0.545505,0.02192 c 0.601752,0.02417 0.738698,0.08446 0.972441,0.428006 0.239899,0.352603 0.11356,0.859467 -0.273004,1.095234 -0.145629,0.08882 -0.275949,0.108768 -0.711609,0.108931 l -0.533333,2.04e-4 v 0.814421 0.814421 l 0.545505,0.02192 c 0.601752,0.02417 0.738698,0.08446 0.972441,0.428005 0.239899,0.352604 0.11356,0.859467 -0.273004,1.095234 -0.145629,0.08882 -0.275949,0.108769 -0.711609,0.108932 l -0.533333,2.02e-4 v 0.629268 0.62927 h 1.641023 1.641021 z m 4.417544,0.670308 -0.01415,-3.023227 h -1.367517 -1.367518 l -0.01422,2.954829 c -0.0078,1.625154 -0.0024,2.985606 0.01197,3.023226 0.01998,0.05221 0.350539,0.06839 1.395871,0.06839 h 1.369698 z m 3.581422,-1.104073 c 0.01699,-4.7743439 -0.05452,-4.268158 0.659806,-4.670122 1.5466,-0.8702919 2.232742,-2.6320507 1.663169,-4.2704062 C 27.271012,5.3042735 26.892635,4.7003549 26.592099,4.4105897 L 26.396517,4.2220187 V 5.408106 c 0,1.5911377 0.04272,1.4949279 -0.952726,2.1455378 -0.961775,0.6286003 -1.070334,0.6843343 -1.332956,0.6843343 -0.224194,0 -0.560545,-0.182908 -1.56652,-0.8518722 -0.699454,-0.4651311 -0.687512,-0.43159 -0.689951,-1.9379462 l -0.002,-1.2320326 -0.295725,0.3138195 c -1.020343,1.0827661 -1.219916,2.6953512 -0.502925,4.0637045 0.244948,0.467474 0.941664,1.146878 1.459049,1.4227909 0.343453,0.183157 0.430295,0.258537 0.533331,0.462932 l 0.123077,0.244151 v 4.037614 4.037617 h 0.95625 0.95625 z m 3.269379,1.553747 c 0,-2.199087 -0.01233,-2.603045 -0.08466,-2.776244 -0.183658,-0.439706 -0.530499,-0.653329 -1.145131,-0.705303 l -0.411228,-0.03478 v 3.044934 3.044938 h 0.820511 0.820511 z M 11.63816,5.906686 C 12.068439,5.6477211 12.431623,5.4252272 12.445237,5.4122535 12.458859,5.3992847 12.077604,4.9955716 11.598018,4.5151214 L 10.726045,3.6415778 H 7.1835342 3.641022 V 5.009554 6.3775302 h 3.6074061 3.6074059 z"
     id="path4020" />
</svg>
