<?xml version="1.0" encoding="UTF-8" standalone="no"?>
<svg
   width="32"
   height="32"
   viewBox="0 0 32 32"
   fill="none"
   version="1.1"
   id="svg11"
   sodipodi:docname="icone_inkscape.svg"
   inkscape:version="1.1.2 (0a00cf5339, 2022-02-04)"
   xmlns:inkscape="http://www.inkscape.org/namespaces/inkscape"
   xmlns:sodipodi="http://sodipodi.sourceforge.net/DTD/sodipodi-0.dtd"
   xmlns="http://www.w3.org/2000/svg"
   xmlns:svg="http://www.w3.org/2000/svg">
  <sodipodi:namedview
     id="namedview13"
     pagecolor="#ffffff"
     bordercolor="#666666"
     borderopacity="1.0"
     inkscape:pageshadow="2"
     inkscape:pageopacity="0.0"
     inkscape:pagecheckerboard="0"
     showgrid="false"
     inkscape:zoom="15.578446"
     inkscape:cx="15.983622"
     inkscape:cy="16.015718"
     inkscape:current-layer="svg11"
     width="32px" />
  <defs
     id="defs9">
    <clipPath
       id="clip0_25207_755">
      <rect
         width="22"
         height="35.538502"
         fill="#ffffff"
         transform="translate(0,0.461548)"
         id="rect6"
         x="0"
         y="0" />
    </clipPath>
  </defs>
  <g
     id="g12"
     transform="translate(-12483.511,-12320.534)">
    <path
       d="m 12459,0.11785 c -1539.4,14.13 -2639.5,1372.30005 -2639.5,1372.30005 0,0 -3687.3,3741.7999 -4875.8,5055.3999 -362.86,401.07 -1515.6,1509.2 -2431.4,2441.8 -1933.1,1968.4002 -3980.8,3799.7002 -1032.9,4589.5002 3144.5,842.56 3330.4,959.49 3807.1,1286.6 435.33,298.76 745.63,247.16 -1204.7,1248 -1745,895.44 -631.87,1284.8 -206.81,1482.2 1413,656.16 3378.3,1115.6 4635.7,1705.8 1257.4,590.22 -365.18,1839.9 -365.18,1839.9 -319.73,400.69 -340.69,764.84 -225.01,880.27 750.04,748.45 1907.2,491.9 2443.8,899.73 907.15,689.4 447.02,1413.1 1071.9,1692.2 1363.3,608.75 3695.3,-487.57 4362.5,-975.15 667.21,-487.58 -51.336,-821.2 -51.336,-821.2 -1284.7,-373.24 -564.58,-898.15 -564.58,-898.15 1103.6,-1209.4 3393.4,-1634.9 3393.4,-1634.9 0,0 2105.4,-991.92 635.59,-2034.8 -1440.3,-1021.9 -2977.4,-1079.3 -436.24,-2104.3 3053.8,-1231.8 2283.9,-333.6 5055.4,-1950.3 2771.5,-1616.7 -256.62,-3951.9 -256.62,-3951.9 0,0 -5748.2,-5594.3002 -8494.1,-8725.1002 -900.97,-1027.29995 -1777.1,-1383.19995 -2547.6,-1397.69995 -24.654,-0.463 -49.19,-0.551 -73.625,-0.327 z m 41.09,924.63 c 1028.2,-18.132 1669.2,794.16995 1669.2,794.16995 0,0 2630.4,2656 3310.4,3323.2 680,667.2 307.9,1424.2 307.9,1424.2 l -1847.6,-1449.9 -333.62,2168.4 -1501.2,-821.14 -2437.9,1514.1 -795.53,-3207.7 -1321.6,2797.1 c 0,0 -2091.4,-12.807 -3092.3,-12.807 -1000.8,0 -359.29,-898.2 -359.29,-898.2 0,0 2425,-2643.2 4503.7,-4683.3 714.52,-701.29 1359.3,-938.61995 1897.9,-948.11995 z M 7953.99,15326.748 c 0,0 1651.2,127.06 3302.5,508.12 1651.3,381.06 1742,635.1 1742,635.1 0,0 181.44,145.14 -290.35,362.89 -471.79,217.75 -1360.9,-18.147 -1360.9,-18.147 0,0 -3538.4,-979.88 -3393.2,-1488 z"
       id="path4-3" />
    <path
       d="m 7827.4,20353 c 0,0 -308.48,1125 -1397.2,1379.1 -1088.7,254.04 -1360.9,-580.66 -1360.9,-580.66 0,0 -90.729,-616.95 453.64,-925.43 544.37,-308.48 1796.4,-616.95 2304.5,127.02 z"
       id="path6" />
    <path
       d="m 20421,19990 c 0,0 762.12,127.02 1088.7,598.81 326.62,471.79 163.31,671.39 163.31,671.39 -25.304,202.43 -1020.2,375.34 -1414.3,-28.269 -212.2,-217.3 -427.11,-661.42 162.24,-1241.9 z"
       id="path8" />
    <path
       d="m 20856,19065 c 0,0 326.62,-1052.5 1506.1,-1179.5 1179.48,-127 1723.8,471.79 1723.8,471.79 0,0 417.35,562.52 199.6,780.27 -217.75,217.75 -889.14,344.77 -1705.7,326.62 -816.56,-18.146 -1723.8,-199.6 -1723.8,-399.21 z"
       id="path10" />
  </g>
  <path
     id="path10-6"
     d="m 8372.4894,6744.4654 c 0,0 326.62,-1052.5 1506.1,-1179.5 1179.4796,-127 1723.7996,471.79 1723.7996,471.79 0,0 417.35,562.52 199.6,780.27 -217.75,217.75 -889.14,344.77 -1705.7,326.62 -816.5596,-18.146 -1723.7996,-199.6 -1723.7996,-399.21 z m -435,925 c 0,0 762.12,127.02 1088.7,598.81 326.62,471.79 163.31,671.39 163.31,671.39 -25.304,202.43 -1020.2,375.34 -1414.3,-28.269 -212.2,-217.3 -427.11,-661.42 162.24,-1241.9 z m -12593.6,363 c 0,0 -308.48,1125 -1397.2,1379.1 -1088.7,254.04 -1360.9,-580.66 -1360.9,-580.66 0,0 -90.729,-616.95 453.64,-925.43 544.37,-308.48 1796.4,-616.95 2304.5,127.02 z M -24.510685,-12320.416 c -1539.399915,14.13 -2639.499915,1372.3 -2639.499915,1372.3 0,0 -3687.3,3741.7992 -4875.8,5055.3992 -362.86,401.07 -1515.6,1509.2 -2431.4,2441.8 -1933.1004,1968.4002 -3980.8004,3799.7002 -1032.9004,4589.5002 3144.5004,842.56 3330.4004,959.49 3807.1004,1286.6 435.33,298.76 745.63,247.16 -1204.7,1248 -1745.0004,895.44 -631.87,1284.8 -206.81,1482.2 1413,656.16 3378.3,1115.6 4635.7,1705.8 1257.4,590.22 -365.18,1839.9 -365.18,1839.9 -319.73,400.69 -340.69,764.84 -225.01,880.27 750.04,748.4506 1907.2,491.9006 2443.8,899.7306 907.15,689.4 447.02,1413.1 1071.9,1692.2 1363.29992,608.75 3695.3,-487.57 4362.5,-975.15 667.21,-487.58 -51.336,-821.2 -51.336,-821.2 -1284.7,-373.24 -564.58,-898.1506 -564.58,-898.1506 1103.6,-1209.4 3393.4,-1634.9 3393.4,-1634.9 0,0 2105.4,-991.92 635.59,-2034.8 -1440.3,-1021.9 -2977.4,-1079.3 -436.24,-2104.3 3053.8,-1231.8 2283.9,-333.6 5055.3996,-1950.3 2771.5,-1616.7 -256.62,-3951.9 -256.62,-3951.9 0,0 -5748.1996,-5594.3002 -8494.0996,-8725.0994 -900.97,-1027.3 -1777.10008,-1383.2 -2547.600085,-1397.7 -24.654,-0.463 -49.18999929,-0.551 -73.625,-0.327 z m 41.09,924.63 c 1028.200085,-18.132 1669.200085,794.17 1669.200085,794.17 0,0 2630.4,2655.9992 3310.4,3323.1992 680,667.2 307.9,1424.2 307.9,1424.2 l -1847.6,-1449.9 -333.62,2168.4 -1501.2,-821.14 -2437.90008,1514.1 -795.52992,-3207.7 -1321.6,2797.1 c 0,0 -2091.4,-12.807 -3092.3,-12.807 -1000.8,0 -359.29,-898.2 -359.29,-898.2 0,0 2425,-2643.2 4503.7,-4683.2992 714.52,-701.29 1359.29992,-938.62 1897.899915,-948.12 z M -4529.5206,3006.2134 c 0,0 1651.2,127.06 3302.5,508.12 1651.29992,381.06 1741.99992,635.1 1741.99992,635.1 0,0 181.44,145.14 -290.35,362.89 -471.79,217.75 -1360.89992,-18.147 -1360.89992,-18.147 0,0 -3538.4,-979.88 -3393.2,-1488 z" />
  <path
     id="path261"
     style="fill:#2a7ae4;fill-opacity:1;stroke-width:0.00112744"
     d="m 16.001969,3.0497217 c 1.152114,-0.020265 1.870185,0.9007747 1.870185,0.9007747 0,0 2.946291,3.0144035 3.707366,3.7712975 0.762076,0.7579072 0.345035,1.6171388 0.345035,1.6171388 L 19.85535,7.693423 19.481313,10.153581 17.800146,9.2224095 15.068877,10.93986 14.177789,7.300284 12.697643,10.47478 c 0,0 -2.342232,-0.02026 -3.4633419,-0.02026 -1.1211106,0 -0.4030398,-1.019324 -0.4030398,-1.019324 0,0 2.7162687,-2.9992049 5.0444977,-5.3144694 0.801079,-0.7964105 1.52315,-1.0649204 2.12621,-1.0760661 z M 10.909466,19.393362 c 0,0 1.850183,0.144894 3.699366,0.576536 1.850182,0.432656 1.951193,0.72143 1.951193,0.72143 0,0 0.20302,0.164146 -0.325033,0.411378 -0.528052,0.247231 -1.52415,-0.02026 -1.52415,-0.02026 0,0 -3.963392,-1.112543 -3.801376,-1.689079 z m 14.452427,4.242456 c 0,0 0.365036,-1.194616 1.686166,-1.338497 1.321132,-0.143881 1.931192,0.534993 1.931192,0.534993 0,0 0.468045,0.638345 0.224022,0.885577 -0.244025,0.247232 -0.996099,0.391113 -1.911189,0.370848 -0.914091,-0.02026 -1.930191,-0.225954 -1.930191,-0.452921 z m -0.488048,1.049722 c 0,0 0.854084,0.143881 1.22012,0.679887 0.366037,0.534994 0.183018,0.76196 0.183018,0.76196 -0.02999,0.228993 -1.143112,0.425563 -1.584156,-0.03039 -0.238023,-0.246219 -0.479047,-0.750814 0.181018,-1.409424 z m -14.105392,0.412391 c 0,0 -0.346035,1.276688 -1.5651549,1.56445 -1.2201205,0.288774 -1.5241504,-0.65861 -1.5241504,-0.65861 0,0 -0.1020102,-0.700152 0.50805,-1.050734 0.6090602,-0.34957 2.0121983,-0.700152 2.5812553,0.144894 z M 15.955965,2 c -1.724171,0.020265 -2.956292,1.5573574 -2.956292,1.5573574 0,0 -4.1304078,4.2465093 -5.4615393,5.7369925 -0.4070401,0.4559602 -1.6981676,1.7133971 -2.7232688,2.7712251 -2.1652138,2.234204 -4.45944028,4.31237 -1.1571142,5.208079 3.5223476,0.956503 3.7303682,1.089238 4.2644209,1.460086 0.4870481,0.339437 0.8350824,0.280668 -1.3491332,1.416515 -1.9551929,1.016285 -0.7080699,1.45806 -0.2320228,1.681987 1.5821561,0.744736 3.7843734,1.266556 5.1925134,1.936311 1.408138,0.669755 -0.409041,2.087284 -0.409041,2.087284 -0.358036,0.454948 -0.382037,0.868351 -0.252025,0.99906 0.840083,0.850112 2.136211,0.558298 2.73727,1.021351 1.0161,0.782225 0.50105,1.603966 1.200118,1.920099 1.527151,0.691033 4.139408,-0.553232 4.886483,-1.106464 0.748074,-0.553232 -0.06001,-0.932185 -0.06001,-0.932185 -1.439143,-0.423536 -0.632063,-1.019324 -0.632063,-1.019324 1.236123,-1.371934 3.800376,-1.855251 3.800376,-1.855251 0,0 2.358233,-1.125716 0.71207,-2.309186 -1.613159,-1.159152 -3.335329,-1.224 -0.488049,-2.387205 3.420338,-1.398278 2.557253,-0.378953 5.66256,-2.213939 3.104306,-1.833974 -0.288028,-4.484623 -0.288028,-4.484623 0,0 -6.438636,-6.3479787 -9.51394,-9.9014286 -1.009099,-1.1662448 -1.991197,-1.5695162 -2.854282,-1.5857282 -0.02999,0 -0.06001,0 -0.08001,0 z" />
</svg>
