<?xml version="1.0" encoding="UTF-8" standalone="no"?>
<svg
   width="32"
   height="32"
   viewBox="0 0 32 32"
   fill="none"
   version="1.1"
   id="svg11"
   sodipodi:docname="icone_estudar.svg"
   inkscape:version="1.1.2 (0a00cf5339, 2022-02-04)"
   xmlns:inkscape="http://www.inkscape.org/namespaces/inkscape"
   xmlns:sodipodi="http://sodipodi.sourceforge.net/DTD/sodipodi-0.dtd"
   xmlns="http://www.w3.org/2000/svg"
   xmlns:svg="http://www.w3.org/2000/svg">
  <sodipodi:namedview
     id="namedview13"
     pagecolor="#ffffff"
     bordercolor="#666666"
     borderopacity="1.0"
     inkscape:pageshadow="2"
     inkscape:pageopacity="0.0"
     inkscape:pagecheckerboard="0"
     showgrid="false"
     inkscape:zoom="15.578446"
     inkscape:cx="15.983622"
     inkscape:cy="16.015718"
     inkscape:current-layer="svg11" />
  <defs
     id="defs9">
    <clipPath
       id="clip0_25207_784">
      <rect
         width="32"
         height="32"
         fill="white"
         id="rect6" />
    </clipPath>
  </defs>
  <path
     style="fill:#2a7ae4;fill-opacity:1;stroke-width:0.0469109"
     d="m 14.858992,27.723227 c -2.620377,-1.622152 -5.2799469,-2.462745 -8.1427309,-2.57362 -0.879534,-0.03406 -1.065169,-0.09673 -1.217415,-0.410938 -0.07487,-0.154524 -0.09669,-0.291418 -0.09669,-0.606747 v -0.407203 h 0.156755 c 0.255409,0 0.860338,-0.174046 1.17208,-0.337221 0.380726,-0.199283 0.950104,-0.768145 1.149568,-1.148527 0.310234,-0.591618 0.337527,-0.812722 0.337527,-2.734319 0,-1.921599 -0.02729,-2.142703 -0.337527,-2.734321 -0.199464,-0.380382 -0.768842,-0.949243 -1.149568,-1.148526 -0.311742,-0.163176 -0.916671,-0.337222 -1.17208,-0.337222 H 5.4021581 V 14.87738 c 0,-0.534952 0.10151,-0.761862 0.4069,-0.909565 0.203835,-0.09858 0.25005,-0.101821 1.017954,-0.07128 3.168759,0.126037 5.5898159,0.732259 7.9958199,2.002116 l 0.480096,0.253388 9.57e-4,5.919818 c 5.26e-4,3.255899 -0.0043,5.918249 -0.01077,5.916334 -0.0064,-0.0019 -0.201809,-0.121151 -0.434123,-0.264966 z m 1.85478,-5.652652 9.57e-4,-5.918534 0.480096,-0.253388 c 2.406004,-1.269857 4.82706,-1.876079 7.99582,-2.002116 0.767904,-0.03054 0.814118,-0.02731 1.017953,0.07128 0.305391,0.147703 0.406901,0.374613 0.406901,0.909565 v 0.407203 h -0.156756 c -0.255408,0 -0.860337,0.174046 -1.17208,0.337222 -0.380726,0.199283 -0.950103,0.768144 -1.149568,1.148526 -0.310232,0.591618 -0.337525,0.812722 -0.337525,2.734321 0,1.921597 0.02729,2.142701 0.337527,2.734319 0.199464,0.380382 0.768841,0.949244 1.149568,1.148527 0.311743,0.163175 0.916671,0.337221 1.17208,0.337221 H 26.6155 v 0.407203 c 0,0.315329 -0.02182,0.452223 -0.09669,0.606747 -0.152245,0.314213 -0.33788,0.376873 -1.217415,0.410938 -2.848248,0.110312 -5.356964,0.895188 -8.060599,2.521839 l -0.527988,0.317664 9.58e-4,-5.918535 z M 5.0125641,22.253949 c -0.46915,-0.131815 -0.8726051,-0.562188 -0.971015,-1.035795 -0.035203,-0.169404 -0.048109,-0.794992 -0.038437,-1.86344 0.013847,-1.530233 0.019454,-1.619022 0.1154156,-1.826422 0.1296399,-0.280189 0.4360244,-0.585301 0.7134474,-0.710487 0.302293,-0.136409 0.83808,-0.136409 1.140374,0 0.277423,0.125186 0.583807,0.430298 0.713447,0.710487 0.09753,0.210782 0.100865,0.2762 0.100865,1.97636 0,1.700159 -0.0033,1.765576 -0.100865,1.976358 -0.127586,0.275749 -0.435841,0.585771 -0.697344,0.701341 -0.269916,0.119289 -0.695118,0.150485 -0.975887,0.0716 z m 21.2133389,0 c -0.469149,-0.131815 -0.872605,-0.562188 -0.971014,-1.035795 -0.0352,-0.169404 -0.04811,-0.794992 -0.03844,-1.86344 0.01385,-1.530233 0.01945,-1.619022 0.115416,-1.826422 0.12964,-0.280189 0.436023,-0.585301 0.713447,-0.710487 0.302293,-0.136409 0.838081,-0.136409 1.140373,0 0.277424,0.125186 0.583808,0.430298 0.713447,0.710487 0.09753,0.210782 0.100866,0.2762 0.100866,1.97636 0,1.700159 -0.0033,1.765576 -0.100866,1.976358 -0.127585,0.275749 -0.435839,0.585771 -0.697342,0.701341 -0.269916,0.119289 -0.69512,0.150485 -0.975888,0.0716 z M 15.140585,14.470313 c -0.947536,-0.48279 -1.571354,-0.740501 -2.534337,-1.046988 -0.361378,-0.115015 -0.68873,-0.220689 -0.727449,-0.234832 -0.08915,-0.03256 0.395263,-0.258624 0.8862,-0.41357 0.617891,-0.195016 1.077926,-0.264948 1.976662,-0.300485 0.477535,-0.01888 0.808406,-0.03788 0.735268,-0.04222 -0.29367,-0.01744 -0.922895,-0.2114 -1.322842,-0.407765 C 13.064108,11.489291 12.23262,10.469497 11.918615,9.2827102 11.767318,8.7108828 11.766981,7.781212 11.917869,7.2226995 12.357923,5.5938287 13.599594,4.406043 15.203729,4.079437 c 0.591482,-0.1204269 1.018721,-0.1204269 1.610202,0 1.604136,0.326606 2.845807,1.5143917 3.285861,3.1432625 0.150887,0.5585125 0.150549,1.4881833 -7.46e-4,2.0600107 -0.314005,1.1867868 -1.145493,2.2065808 -2.235472,2.7417418 -0.399947,0.196365 -1.029172,0.390322 -1.322842,0.407761 -0.07314,0.0043 0.257733,0.02335 0.735267,0.04222 0.898737,0.03553 1.358772,0.105469 1.976663,0.300485 0.490937,0.154946 0.975343,0.381007 0.8862,0.41357 -0.03872,0.01415 -0.366071,0.119817 -0.727449,0.234832 -0.955262,0.304029 -1.579713,0.561136 -2.55332,1.051289 -0.475068,0.23917 -0.865779,0.432891 -0.868245,0.430493 -0.0025,-0.0024 -0.384634,-0.198055 -0.849263,-0.434794 z"
     id="path81" />
</svg>
