<?xml version="1.0" encoding="UTF-8" standalone="no"?>
<!-- Created with Inkscape (http://www.inkscape.org/) -->

<svg
   version="1.1"
   id="svg75"
   width="25"
   height="32"
   viewBox="0 0 25 32"
   sodipodi:docname="icone_caminhar.svg"
   inkscape:version="1.1.2 (0a00cf5339, 2022-02-04)"
   xmlns:inkscape="http://www.inkscape.org/namespaces/inkscape"
   xmlns:sodipodi="http://sodipodi.sourceforge.net/DTD/sodipodi-0.dtd"
   xmlns="http://www.w3.org/2000/svg"
   xmlns:svg="http://www.w3.org/2000/svg">
  <defs
     id="defs79">
    <clipPath
       id="clip0_25207_784">
      <rect
         width="32"
         height="32"
         fill="#ffffff"
         id="rect6"
         x="0"
         y="0" />
    </clipPath>
  </defs>
  <sodipodi:namedview
     id="namedview77"
     pagecolor="#ffffff"
     bordercolor="#666666"
     borderopacity="1.0"
     inkscape:pageshadow="2"
     inkscape:pageopacity="0.0"
     inkscape:pagecheckerboard="0"
     showgrid="false"
     inkscape:zoom="15.578446"
     inkscape:cx="13.030825"
     inkscape:cy="16.015718"
     inkscape:current-layer="g81" />
  <g
     inkscape:groupmode="layer"
     inkscape:label="Image"
     id="g81">
    <path
       style="fill:#2a7ae4;fill-opacity:1;stroke-width:0.0496584"
       d="M 17.737727,27.90843 C 16.93303,27.495432 16.761095,26.44236 17.325848,25.385754 l 0.178328,-0.333636 -1.570271,-1.559805 c -0.863649,-0.857896 -1.848382,-1.836359 -2.188293,-2.174367 l -0.618024,-0.614558 -3.058492,2.999577 -3.0584933,2.999576 -1.52429,-1.494475 c -1.467654,-1.438947 -1.522506,-1.499497 -1.476276,-1.629567 0.07696,-0.216536 0.360441,-0.505852 0.624774,-0.637632 0.37443,-0.186673 0.975226,-0.198503 1.489045,-0.02934 0.212871,0.07009 0.476427,0.18278 0.585678,0.250424 0.109253,0.06766 0.216114,0.122992 0.237471,0.122992 0.0875,0 4.1337463,-4.021606 4.0793993,-4.054554 -0.08406,-0.05096 -0.332281,-0.553044 -0.425218,-0.860108 -0.06834,-0.2258 -0.08085,-0.564253 -0.08085,-2.187996 v -1.92088 l -0.8775911,0.859721 -0.8775912,0.859718 -1.584481,-1.548772 c -1.609358,-1.573074 -1.771335,-1.765188 -1.773644,-2.10362 -0.0013,-0.184884 0.11318,-0.48016 0.238982,-0.616607 0.239724,-0.26001 0.697661,-0.348442 1.052132,-0.203173 0.116086,0.04759 0.539342,0.42112 1.127188,0.994807 l 0.941303,0.918629 0.9564702,-0.933332 c 0.5493741,-0.536086 1.0398531,-1.061028 1.1523821,-1.233349 0.93871,-1.437516 2.883599,-1.6717544 4.086265,-0.492133 0.169495,0.166241 0.354882,0.390355 0.411974,0.498024 0.06036,0.113819 0.892301,0.967655 1.987497,2.039783 l 1.883696,1.84402 -1.879285,1.844503 c -1.033606,1.014475 -1.944925,1.944097 -2.025154,2.065813 l -0.14587,0.221316 2.902696,2.852681 L 21,24.982121 19.458083,26.491059 17.91617,28 Z M 16.225008,15.550331 16.637566,15.14357 16.186295,14.702998 15.735026,14.262425 v 0.847338 c 0,0.466031 0.01741,0.847335 0.03871,0.847335 0.0213,0 0.224363,-0.183043 0.45127,-0.406767 z M 12.486164,9.0444796 C 12.009483,8.9186303 11.664137,8.7203498 11.293682,8.3598105 10.761685,7.8420519 10.522092,7.284822 10.520931,6.5625936 c -0.0018,-1.1417193 0.784324,-2.163525 1.897527,-2.4662905 0.924352,-0.2514035 1.864655,-0.00426 2.539378,0.6673999 0.819178,0.8154752 1.002567,1.8850411 0.501159,2.9228636 -0.512115,1.0599811 -1.826764,1.6604789 -2.972831,1.357913 z"
       id="path16296" />
  </g>
</svg>
