<?xml version="1.0" encoding="UTF-8" standalone="no"?>
<svg
   width="26"
   height="32"
   viewBox="0 0 26 32"
   fill="none"
   version="1.1"
   id="svg11"
   sodipodi:docname="icone_css.svg"
   inkscape:version="1.1.2 (0a00cf5339, 2022-02-04)"
   xmlns:inkscape="http://www.inkscape.org/namespaces/inkscape"
   xmlns:sodipodi="http://sodipodi.sourceforge.net/DTD/sodipodi-0.dtd"
   xmlns="http://www.w3.org/2000/svg"
   xmlns:svg="http://www.w3.org/2000/svg">
  <sodipodi:namedview
     id="namedview13"
     pagecolor="#ffffff"
     bordercolor="#666666"
     borderopacity="1.0"
     inkscape:pageshadow="2"
     inkscape:pageopacity="0.0"
     inkscape:pagecheckerboard="0"
     showgrid="false"
     inkscape:zoom="15.578446"
     inkscape:cx="13.480163"
     inkscape:cy="16.015718"
     inkscape:current-layer="svg11"
     width="32px" />
  <path
     d="M 17.169159,2 H 6.3158846 C 4.7303201,2 3.4397883,3.3381 3.4397883,4.980151 V 15.99997 H 3.1588252 C 2.5188817,15.99997 2,16.537206 2,17.200804 v 7.282768 c 0,0.663597 0.5188817,1.200933 1.1588252,1.200933 h 0.2809631 v 1.335344 C 3.4397883,28.66365 4.7303783,30 6.3158846,30 H 21.124708 C 22.709371,30 24,28.66365 24,27.019849 V 9.0531247 Z M 7.5351907,22.628296 c 0.3326383,0 0.7014264,-0.07495 0.9187678,-0.164591 l 0.1659597,0.891368 c -0.2022753,0.105235 -0.6580437,0.217913 -1.250746,0.217913 -1.685272,0 -2.5531527,-1.086444 -2.5531527,-2.52531 0,-1.723381 1.1862286,-2.68256 2.6614403,-2.68256 0.5714528,0 1.005194,0.119823 1.2003541,0.224251 L 8.4539585,19.49633 C 8.22955,19.398441 7.9186565,19.3088 7.5281814,19.3088 c -0.8753935,0 -1.5550749,0.547196 -1.5550749,1.671268 0,1.011291 0.5785677,1.648228 1.5620842,1.648228 z m 13.5895173,5.54661 H 6.3158846 c -0.6139333,0 -1.1139271,-0.51802 -1.1139271,-1.155057 V 25.684505 H 19.006848 c 0.64003,0 1.158977,-0.537336 1.158977,-1.200933 v -7.282768 c 0,-0.663598 -0.518947,-1.200834 -1.158977,-1.200834 H 5.2019575 V 4.980151 c 0,-0.635277 0.4999938,-1.1532971 1.1139271,-1.1532971 L 16.510224,3.8158744 v 3.9045188 c 0,1.140369 0.893056,2.0666489 1.994546,2.0666489 l 3.691277,-0.010869 0.04159,17.2436679 c 0,0.637037 -0.499073,1.155058 -1.112929,1.155058 z M 10.560651,21.37726 C 9.7505493,21.085301 9.2224211,20.620301 9.2224211,19.886178 c 0,-0.862293 0.6941947,-1.521163 1.8442729,-1.521163 0.549426,0 0.954927,0.119822 1.243775,0.254434 L 12.06481,19.5412 c -0.195131,-0.09708 -0.542339,-0.239945 -1.019744,-0.239945 -0.477406,0 -0.708823,0.225257 -0.708823,0.487134 0,0.322142 0.274684,0.4649 0.904031,0.711989 0.860794,0.329586 1.265733,0.794485 1.265733,1.506575 0,0.846599 -0.629318,1.566033 -1.9671,1.566033 -0.5569407,0 -1.1067647,-0.150103 -1.3814484,-0.307553 l 0.2243009,-0.943684 c 0.2964299,0.157448 0.7522065,0.313991 1.2221005,0.313991 0.506159,0 0.773786,-0.217008 0.773786,-0.546491 5.7e-5,-0.314798 -0.23136,-0.495082 -0.816995,-0.711989 z m 3.907329,0 c -0.809976,-0.291959 -1.338229,-0.756959 -1.338229,-1.491082 0,-0.862293 0.69432,-1.521163 1.844282,-1.521163 0.549969,0 0.954423,0.119822 1.244193,0.254434 l -0.24595,0.921751 c -0.195247,-0.09708 -0.542311,-0.239945 -1.019765,-0.239945 -0.477454,0 -0.708862,0.225257 -0.708862,0.487134 0,0.322142 0.274645,0.4649 0.904109,0.711989 0.860775,0.329586 1.265908,0.794485 1.265908,1.506575 0,0.846599 -0.629367,1.566033 -1.967208,1.566033 -0.557046,0 -1.106917,-0.150103 -1.381563,-0.307553 l 0.224428,-0.943684 c 0.296264,0.157448 0.752099,0.313991 1.221991,0.313991 0.50615,0 0.773816,-0.217008 0.773816,-0.546491 -9.8e-5,-0.314798 -0.231505,-0.495082 -0.81715,-0.711989 z"
     fill="#2a7ae4"
     id="path2"
     style="stroke-width:0.987584" />
  <defs
     id="defs9">
    <clipPath
       id="clip0_25207_755">
      <rect
         width="22"
         height="35.538502"
         fill="#ffffff"
         transform="translate(0,0.461548)"
         id="rect6"
         x="0"
         y="0" />
    </clipPath>
  </defs>
</svg>
