<?xml version="1.0" encoding="UTF-8" standalone="no"?>
<svg
   width="32"
   height="32"
   viewBox="0 0 32 32"
   fill="none"
   version="1.1"
   id="svg11"
   sodipodi:docname="icone_psd.svg"
   inkscape:version="1.1.2 (0a00cf5339, 2022-02-04)"
   xmlns:inkscape="http://www.inkscape.org/namespaces/inkscape"
   xmlns:sodipodi="http://sodipodi.sourceforge.net/DTD/sodipodi-0.dtd"
   xmlns="http://www.w3.org/2000/svg"
   xmlns:svg="http://www.w3.org/2000/svg">
  <sodipodi:namedview
     id="namedview13"
     pagecolor="#ffffff"
     bordercolor="#666666"
     borderopacity="1.0"
     inkscape:pageshadow="2"
     inkscape:pageopacity="0.0"
     inkscape:pagecheckerboard="0"
     showgrid="false"
     inkscape:zoom="15.578446"
     inkscape:cx="15.983622"
     inkscape:cy="16.015718"
     inkscape:current-layer="svg11"
     width="32px" />
  <defs
     id="defs9">
    <clipPath
       id="clip0_25207_755">
      <rect
         width="22"
         height="35.538502"
         fill="#ffffff"
         transform="translate(0,0.461548)"
         id="rect6"
         x="0"
         y="0" />
    </clipPath>
  </defs>
  <path
     id="path9221"
     style="fill:#2a7ae4;fill-opacity:1;stroke-width:0.0547945"
     d="m 22,21.865603 c 1.106223,-0.124857 1.840092,-0.442244 2.403486,-1.039472 0.571451,-0.605768 0.781871,-1.195907 0.734845,-2.060925 -0.04295,-0.78999 -0.350795,-1.389762 -0.943106,-1.837432 -0.351344,-0.265545 -1.188017,-0.698957 -1.839061,-0.952667 -1.287427,-0.501705 -1.66705,-0.832917 -1.477941,-1.289468 0.138766,-0.335013 0.671203,-0.461621 1.579589,-0.375608 0.672451,0.06367 1.283311,0.208055 1.766107,0.417437 0.327445,0.142009 0.340337,0.143373 0.4132,0.04373 0.08965,-0.122603 0.108712,-1.849684 0.0229,-2.075372 -0.107427,-0.282558 -1.157423,-0.489075 -2.495635,-0.490852 -1.052799,-0.0014 -1.499702,0.08279 -2.155215,0.405982 -1.035347,0.510471 -1.598211,1.401469 -1.598211,2.529929 0,1.285471 0.815819,2.171762 2.693989,2.926708 1.402485,0.563741 1.69982,0.837384 1.445103,1.329954 -0.298763,0.577745 -2.299035,0.472765 -3.688106,-0.193562 -0.21908,-0.105089 -0.422505,-0.176134 -0.452054,-0.157871 -0.0322,0.01991 -0.05373,0.471299 -0.05373,1.126666 v 1.093462 l 0.178082,0.109694 c 0.624133,0.384456 2.300037,0.621241 3.465754,0.489668 z M 10.79452,19.702985 v -1.945206 h 0.919246 c 1.506578,0 2.340386,-0.150316 3.245138,-0.585026 0.449319,-0.215885 0.588028,-0.318559 1.013699,-0.75035 0.535594,-0.543294 0.706383,-0.81451 0.936102,-1.486541 0.128615,-0.376261 0.153406,-0.551396 0.175003,-1.236334 0.02159,-0.684743 0.0088,-0.863579 -0.09036,-1.260274 -0.186686,-0.747062 -0.50118,-1.320041 -0.989573,-1.802908 -0.819236,-0.8099654 -1.751365,-1.1911838 -3.22417,-1.3186098 -0.712314,-0.06163 -4.3226992,0.0047 -4.4472903,0.08169 -0.06505,0.0402 -0.08668,12.1473758 -0.02181,12.2122378 0.02009,0.02009 0.587215,0.03653 1.260275,0.03653 h 1.2237433 z m 0.05479,-6.096023 v -1.974191 l 0.599384,-0.03916 c 1.235034,-0.08068 2.04562,0.109192 2.573295,0.60277 0.403174,0.377121 0.525951,0.696842 0.525951,1.369614 0,0.490048 -0.01632,0.581172 -0.154416,0.862402 -0.162035,0.329974 -0.447451,0.602836 -0.834251,0.797556 -0.430366,0.216652 -0.844025,0.291393 -1.792154,0.323813 l -0.917809,0.03139 z M 7.9003153,2 H 24.099685 C 27.368459,2 30,4.6315406 30,7.9003153 V 24.099685 C 30,27.368459 27.368459,30 24.099685,30 H 7.9003153 C 4.6315406,30 2,27.368459 2,24.099685 V 7.9003153 C 2,4.6315406 4.6315406,2 7.9003153,2 Z" />
</svg>
