<?xml version="1.0" encoding="UTF-8" standalone="no"?>
<svg
   width="32"
   height="30"
   viewBox="0 0 32 30"
   fill="none"
   version="1.1"
   id="svg11"
   sodipodi:docname="icone_krita.svg"
   inkscape:version="1.1.2 (0a00cf5339, 2022-02-04)"
   xmlns:inkscape="http://www.inkscape.org/namespaces/inkscape"
   xmlns:sodipodi="http://sodipodi.sourceforge.net/DTD/sodipodi-0.dtd"
   xmlns="http://www.w3.org/2000/svg"
   xmlns:svg="http://www.w3.org/2000/svg">
  <sodipodi:namedview
     id="namedview13"
     pagecolor="#ffffff"
     bordercolor="#666666"
     borderopacity="1.0"
     inkscape:pageshadow="2"
     inkscape:pageopacity="0.0"
     inkscape:pagecheckerboard="0"
     showgrid="false"
     inkscape:zoom="16.617009"
     inkscape:cx="16.007694"
     inkscape:cy="15.014735"
     inkscape:current-layer="svg11"
     width="32px" />
  <defs
     id="defs9">
    <clipPath
       id="clip0_25207_755">
      <rect
         width="22"
         height="35.538502"
         fill="#ffffff"
         transform="translate(0,0.461548)"
         id="rect6"
         x="0"
         y="0" />
    </clipPath>
  </defs>
  <path
     d="m 2.785003,1.9999998 c -0.2596176,0 -0.432696,0.086591 -0.6057743,0.2597746 -0.432696,0.519549 0,1.0390982 0.4326959,1.4720557 C 2.8715422,3.9916046 4.602326,5.8100266 6.5927274,7.8016315 7.1985017,6.9357163 7.8908152,6.1563927 8.6696679,5.5502522 6.2465706,4.0781962 3.9965516,2.6061404 3.6503949,2.4329573 3.3907773,2.1731828 3.0446206,1.9999998 2.785003,1.9999998 Z m 5.8846649,3.5502524 c 2.1634801,1.2988726 4.3269591,2.6843373 5.4519691,3.2904779 1.730784,0.9525062 4.326959,3.1172959 4.759655,5.1088999 0.605775,0.51955 2.509637,2.25138 3.028872,2.770928 0.778853,-0.259774 1.730784,0.173184 2.336558,1.298873 1.03847,1.818422 0.259618,4.329576 -2.250019,5.801632 -0.08654,0.08659 -0.259617,0.173183 -0.346157,0.346366 l 0.346157,-0.346366 c 1.298088,-1.731831 -0.865392,-2.770929 -1.384627,-4.502759 -0.08654,-0.259775 -0.173078,-0.606141 -0.08654,-0.865916 -0.605774,-0.346366 -2.423097,-1.645238 -3.20195,-2.251379 -2.076941,0.173184 -4.846195,-2.078196 -6.144282,-3.550252 -0.778852,-0.952506 -2.6827145,-2.944112 -4.4134983,-4.762534 -1.5577054,2.164789 -2.3365581,4.762534 -2.3365581,7.360279 0,5.195492 3.1154108,9.784842 7.8750664,11.776447 4.759655,1.991604 10.211624,0.865916 13.93281,-2.770929 3.721185,-3.636843 4.759655,-9.1787 2.769254,-13.941233 -1.990402,-4.7625348 -6.663518,-7.8798297 -11.76933,-7.8798297 -3.375029,0 -6.317361,1.1256897 -8.5673801,3.1172949 z M 18.708214,14.295996 c -0.605774,0.173183 -1.125009,0.952506 -1.298088,1.472055 0,0.173184 -0.08654,0.346367 0.08654,0.432958 0.951931,0.692733 1.817323,1.385464 2.769254,1.991605 0.173079,-0.432957 0.865392,-1.12569 1.298088,-1.385464 z M 5.3811787,16.114418 c 0.9519311,2.164788 6.6635183,8.312786 13.9328093,3.117295 0,0.259773 0,0.519549 0.173079,0.865916 0.519235,1.645237 2.769254,2.770927 1.471166,4.502758 -2.423097,1.558647 -5.798126,1.385465 -8.048145,0.606141 C 8.6696679,23.821064 5.986953,20.18422 5.3811787,16.114418 Z M 21.30439,16.980333 c 0,0 -0.08654,0 0,0 -0.08654,0 -0.08654,0.08659 0,0 -0.08654,0 -0.08654,0 0,0 -0.08654,0 0,0 0,0 z"
     id="path4"
     style="fill:#2a7ae4;fill-opacity:1;stroke-width:0.865654" />
</svg>
