<?xml version="1.0" encoding="UTF-8" standalone="no"?>
<svg
   width="26"
   height="32"
   viewBox="0 0 26 32"
   fill="none"
   version="1.1"
   id="svg11"
   sodipodi:docname="icone_java.svg"
   inkscape:version="1.1.2 (0a00cf5339, 2022-02-04)"
   xmlns:inkscape="http://www.inkscape.org/namespaces/inkscape"
   xmlns:sodipodi="http://sodipodi.sourceforge.net/DTD/sodipodi-0.dtd"
   xmlns="http://www.w3.org/2000/svg"
   xmlns:svg="http://www.w3.org/2000/svg">
  <sodipodi:namedview
     id="namedview13"
     pagecolor="#ffffff"
     bordercolor="#666666"
     borderopacity="1.0"
     inkscape:pageshadow="2"
     inkscape:pageopacity="0.0"
     inkscape:pagecheckerboard="0"
     showgrid="false"
     inkscape:zoom="15.578446"
     inkscape:cx="13.480164"
     inkscape:cy="16.015718"
     inkscape:current-layer="svg11"
     width="32px" />
  <defs
     id="defs9">
    <clipPath
       id="clip0_25207_755">
      <rect
         width="22"
         height="35.538502"
         fill="#ffffff"
         transform="translate(0,0.461548)"
         id="rect6"
         x="0"
         y="0" />
    </clipPath>
  </defs>
  <path
     style="fill:#2a7ae4;fill-opacity:1;stroke-width:0.0563437"
     d="m 12.334717,29.968957 c -0.82338,-0.03833 -2.147848,-0.137423 -2.9008865,-0.217028 -1.119111,-0.118302 -3.0290784,-0.430816 -3.1337612,-0.512753 -0.047422,-0.03712 -0.086219,-0.110705 -0.086219,-0.163525 0,-0.225953 0.047794,-0.228806 2.6791335,-0.159917 4.3011152,0.112604 8.5494782,0.007 10.1137742,-0.251307 1.571397,-0.259521 3.305897,-0.871518 4.064812,-1.434221 0.395804,-0.293471 0.413992,-0.301274 0.546398,-0.234442 0.28749,0.145109 0.01699,0.748642 -0.569307,1.270277 -0.432314,0.384628 -1.060903,0.720731 -1.764589,0.943516 -1.720421,0.544679 -5.915453,0.90065 -8.949352,0.7594 z M 8.6295679,28.580883 C 4.367471,28.43572 2.3174994,27.925604 2.0361488,26.940173 1.7898493,26.077511 2.7935539,25.599889 5.3119842,25.381338 c 1.2462859,-0.108154 1.3477818,-0.106143 1.4240219,0.02821 0.1190899,0.209867 -0.011087,0.30454 -0.5601283,0.407379 -0.6397423,0.119824 -1.7251742,0.450886 -1.889334,0.576253 -0.1237398,0.0945 -0.1219287,0.09629 0.2176893,0.216138 1.8803546,0.663516 7.4451039,0.911821 11.6596529,0.520266 2.328084,-0.216292 4.577836,-0.626253 5.304631,-0.966637 0.252549,-0.118278 0.264417,-0.134252 0.251219,-0.338149 -0.0261,-0.403385 0.259122,-0.489243 0.558173,-0.168015 0.323946,0.347969 0.32273,0.784603 -0.0031,1.105022 -0.626251,0.615892 -2.98726,1.26471 -5.728963,1.574349 -2.066647,0.233401 -5.307381,0.333587 -7.9163013,0.244729 z m 3.4150601,-2.6073 C 10.041889,25.904273 8.3860063,25.576963 7.7453698,25.123774 7.1247151,24.684719 7.108283,24.007346 7.7092142,23.633232 7.9710496,23.470223 8.57344,23.317443 8.8627504,23.340668 c 0.2628444,0.0211 0.3721724,0.156732 0.2613016,0.324167 -0.042276,0.06385 -0.055135,0.135884 -0.02859,0.160094 0.1435512,0.130883 1.510924,0.304371 2.822473,0.358107 0.963892,0.03949 1.350672,0.007 3.041512,-0.255123 l 1.058256,-0.164086 0.740292,0.421751 c 0.882261,0.50263 0.943356,0.548379 0.943356,0.706396 0,0.138682 -0.170329,0.229243 -0.832214,0.442476 -0.966214,0.311273 -2.224548,0.543153 -3.237022,0.596502 -0.978118,0.05154 -1.176316,0.05686 -1.58749,0.04263 z m -2.03062,-3.064627 C 9.4311999,22.859008 8.2839079,22.649316 7.8093343,22.506 7.2001958,22.322045 6.6536383,22.018285 6.5317276,21.795945 6.2323269,21.249897 6.6708513,20.796146 7.8010339,20.482559 c 0.4907989,-0.136179 0.6304881,-0.11498 0.6646384,0.100864 0.013273,0.08389 -0.045142,0.152355 -0.2175664,0.255009 -0.2511511,0.149527 -0.2996945,0.268248 -0.1341788,0.328155 0.593153,0.214688 2.7110229,0.34072 4.2610879,0.253572 1.44595,-0.08129 3.209296,-0.316438 4.182654,-0.557759 0.212702,-0.05273 0.237762,-0.04274 0.783239,0.312133 0.30993,0.201637 0.622253,0.416421 0.69405,0.4773 0.150026,0.12721 0.167902,0.267838 0.04616,0.363126 -0.202634,0.158607 -3.366333,0.687615 -5.072825,0.848237 -0.79797,0.07511 -2.371247,0.09916 -2.994289,0.04576 z m 9.137791,-0.279127 c -0.108276,-0.03397 -0.172007,-0.120805 -0.173165,-0.235936 -5.21e-4,-0.04948 0.273111,-0.277795 0.622802,-0.51971 1.224595,-0.847169 2.295766,-1.954255 2.458032,-2.540451 0.229636,-0.829578 -0.516136,-1.418148 -2.024607,-1.597835 -0.4063,-0.0484 -0.557538,-0.08857 -0.597315,-0.158666 -0.125963,-0.221981 0.04583,-0.337896 0.890268,-0.600681 1.6059,-0.499751 2.87202,-0.10449 3.402246,1.062123 0.213856,0.470536 0.316142,1.05691 0.250012,1.433286 -0.163839,0.932507 -0.931593,1.720926 -2.304502,2.366533 -0.800995,0.376667 -2.323698,0.854115 -2.523771,0.791337 z M 8.766626,20.230001 c -2.4560601,-0.15936 -3.9482818,-0.603539 -4.3275,-1.288135 -0.1199555,-0.216554 -0.1021858,-0.574334 0.039243,-0.790152 0.3009124,-0.459196 1.3554701,-0.779387 3.1279073,-0.949715 0.3031424,-0.02914 0.8435859,-0.05339 1.2009846,-0.05392 0.5429614,-7.94e-4 0.658584,0.01383 0.703132,0.0889 0.092275,0.155505 0.00933,0.289485 -0.2137795,0.345467 -1.4917937,0.374255 -2.3865499,0.678747 -2.3865499,0.812161 0,0.248968 3.9396705,0.420854 6.6322165,0.289359 1.780171,-0.08694 3.017848,-0.200631 4.043046,-0.371396 1.157422,-0.192789 1.265217,-0.202661 1.364507,-0.124943 0.229818,0.179884 -0.01662,0.396463 -0.929375,0.81679 -1.90673,0.878052 -4.365959,1.277144 -7.715367,1.252078 -0.702558,-0.0053 -1.3948659,-0.01718 -1.5384603,-0.02649 z m 5.309603,-2.095029 c -0.02038,-0.0606 0.0521,-0.34955 0.168157,-0.670295 0.256908,-0.709972 0.310351,-1.096426 0.189385,-1.369469 -0.04918,-0.111013 -0.302011,-0.465664 -0.561843,-0.788113 -0.851409,-1.05659 -1.126624,-1.748241 -1.12941,-2.838345 -0.0015,-0.633466 0.0052,-0.669651 0.190053,-1.026376 0.511235,-0.985937 1.840852,-1.9949738 3.933092,-2.9847928 0.486229,-0.2300321 1.567726,-0.6672164 1.650543,-0.6672164 0.07533,0 0.229469,0.1650738 0.229469,0.2457398 0,0.040573 -0.409753,0.3896919 -0.910562,0.7758218 -1.805152,1.3917916 -2.645562,2.2648366 -2.828624,2.9384686 -0.13872,0.510464 -0.03814,0.805749 0.578204,1.697529 0.413209,0.597866 0.583954,0.95122 0.703442,1.455775 0.0814,0.343745 0.0864,0.469843 0.03074,0.77654 -0.117291,0.646398 -0.453766,1.221283 -1.078327,1.842379 -0.641428,0.637871 -1.078402,0.867688 -1.164327,0.612354 z M 12.189673,17.140546 C 11.852444,16.948539 10.387114,15.511849 9.9919496,14.985776 8.8156648,13.419818 8.5200155,11.913258 9.1551568,10.721682 9.5974874,9.8918376 10.363005,9.0149675 11.253002,8.3186869 c 0.243936,-0.1908403 0.874301,-0.6390628 1.400812,-0.9960505 1.26261,-0.8560816 1.662449,-1.1579006 1.992252,-1.5038572 0.665975,-0.6985969 1.089648,-2.0742196 0.994635,-3.229489 -0.03243,-0.3943607 -0.02369,-0.4795443 0.05551,-0.5415449 0.170441,-0.1334079 0.338022,0.00673 0.593837,0.4965957 0.403977,0.7735821 0.510482,1.2112049 0.511022,2.0997413 4.64e-4,0.7190432 -0.01062,0.7952436 -0.179786,1.2417652 -0.290372,0.7663386 -0.636725,1.2336388 -1.555517,2.0986933 -0.449056,0.4227924 -1.239169,1.0944353 -1.755806,1.4925379 -1.169437,0.9011283 -1.802854,1.4822473 -2.038972,1.8706193 -0.165896,0.272865 -0.182614,0.343446 -0.18311,0.77302 -0.0011,0.998413 0.455229,2.581965 1.172642,4.068853 0.327,0.677735 0.380376,0.867741 0.276816,0.985425 -0.09218,0.104748 -0.1055,0.103427 -0.347664,-0.03445 z"
     id="path20" />
</svg>
