<?xml version="1.0" encoding="UTF-8" standalone="no"?>
<svg
   width="35"
   height="32"
   viewBox="0 0 35 32"
   fill="none"
   version="1.1"
   id="svg13"
   sodipodi:docname="icone_fotografia.svg"
   inkscape:version="1.1.2 (0a00cf5339, 2022-02-04)"
   xmlns:inkscape="http://www.inkscape.org/namespaces/inkscape"
   xmlns:sodipodi="http://sodipodi.sourceforge.net/DTD/sodipodi-0.dtd"
   xmlns="http://www.w3.org/2000/svg"
   xmlns:svg="http://www.w3.org/2000/svg">
  <sodipodi:namedview
     id="namedview15"
     pagecolor="#ffffff"
     bordercolor="#666666"
     borderopacity="1.0"
     inkscape:pageshadow="2"
     inkscape:pageopacity="0.0"
     inkscape:pagecheckerboard="0"
     showgrid="false"
     inkscape:zoom="15.578446"
     inkscape:cx="15.983622"
     inkscape:cy="16.015718"
     inkscape:current-layer="svg13" />
  <path
     id="path4"
     style="fill:#2a7ae4;fill-opacity:1;stroke-width:1.00623"
     d="m 13.449954,4.000025 -2.470456,2.66666 H 6.7 c -1.4850015,0 -2.7,1.2 -2.7,2.66667 v 16.00002 c 0,1.4666 1.2149985,2.6666 2.7,2.6666 h 21.59997 c 1.485032,0 2.70003,-1.2 2.70003,-2.6666 V 9.333355 c 0,-1.46667 -1.214998,-2.66667 -2.70003,-2.66667 h -4.279529 l -2.470497,-2.66666 z m 4.050011,19.99995 c -3.68,0 -6.66663,-2.9866 -6.66663,-6.6666 0,-3.68 2.98663,-6.66668 6.66663,-6.66668 3.68,0 6.6667,2.98668 6.6667,6.66668 0,3.68 -2.9867,6.6666 -6.6667,6.6666 z m 8.5e-5,-2.4 c 2.3564,0 4.2666,-1.9102 4.2666,-4.2666 0,-2.3565 -1.9102,-4.2667 -4.2666,-4.2667 -2.3565,0 -4.2667,1.9102 -4.2667,4.2667 0,2.3564 1.9102,4.2666 4.2667,4.2666 z" />
  <defs
     id="defs11">
    <clipPath
       id="clip0_25207_789">
      <rect
         width="32"
         height="32"
         fill="#ffffff"
         id="rect8"
         x="0"
         y="0" />
    </clipPath>
  </defs>
</svg>
