<?xml version="1.0" encoding="UTF-8" standalone="no"?>
<svg
   width="32"
   height="32"
   viewBox="0 0 32 32"
   fill="none"
   version="1.1"
   id="svg4"
   sodipodi:docname="icone_js.svg"
   inkscape:version="1.1.2 (0a00cf5339, 2022-02-04)"
   xmlns:inkscape="http://www.inkscape.org/namespaces/inkscape"
   xmlns:sodipodi="http://sodipodi.sourceforge.net/DTD/sodipodi-0.dtd"
   xmlns="http://www.w3.org/2000/svg"
   xmlns:svg="http://www.w3.org/2000/svg">
  <defs
     id="defs8" />
  <sodipodi:namedview
     id="namedview6"
     pagecolor="#ffffff"
     bordercolor="#666666"
     borderopacity="1.0"
     inkscape:pageshadow="2"
     inkscape:pageopacity="0.0"
     inkscape:pagecheckerboard="0"
     showgrid="false"
     width="32px"
     inkscape:zoom="15.578446"
     inkscape:cx="15.983622"
     inkscape:cy="16.015718"
     inkscape:current-layer="svg4" />
  <path
     id="rect61"
     style="font-variation-settings:normal;opacity:1;vector-effect:none;fill:#2a7ae4;fill-opacity:1;fill-rule:evenodd;stroke:none;stroke-width:0.133333;stroke-linecap:butt;stroke-linejoin:miter;stroke-miterlimit:4;stroke-dasharray:none;stroke-dashoffset:0;stroke-opacity:1;-inkscape-stroke:none;stop-color:#000000;stop-opacity:1"
     d="M 5.0820312 2 C 3.3750575 2 2 3.3750575 2 5.0820312 L 2 26.917969 C 2 28.624943 3.3750575 30 5.0820312 30 L 26.917969 30 C 28.624943 30 30 28.624943 30 26.917969 L 30 5.0820312 C 30 3.3750575 28.624943 2 26.917969 2 L 5.0820312 2 z M 23.3125 14.75 C 24.9375 14.75 26.1875 15.3125 27 16.8125 L 25 18.125 C 24.5 17.375 24.0625 17 23.25 17 C 22.5 17 22 17.5 22 18.125 C 22 18.9375 22.5 19.25 23.625 19.75 L 24.3125 20.0625 C 26.5625 21 27.8125 22 27.8125 24.1875 C 27.8125 26.5625 25.9375 27.8125 23.4375 27.8125 C 21 27.8125 19.4375 26.6875 18.625 25.125 L 20.8125 23.9375 C 21.375 24.8125 22.0625 25.5 23.375 25.5 C 24.4375 25.5 25.1875 24.9375 25.1875 24.1875 C 25.1875 23.3125 24.4375 23 23.25 22.4375 L 22.5625 22.1875 C 20.6875 21.375 19.4375 20.375 19.4375 18.1875 C 19.4375 16.25 20.9375 14.75 23.3125 14.75 z M 14.5625 14.875 L 17.1875 14.875 L 17.1875 23.875 C 17.1875 26.5625 15.625 27.8125 13.25 27.8125 C 11.1875 27.8125 9.9375 26.75 9.3125 25.4375 L 11.5 24.125 C 11.875 24.875 12.25 25.5 13.1875 25.5 C 14 25.5 14.5625 25.125 14.5625 23.8125 L 14.5625 14.875 z " />
</svg>
