<?xml version="1.0" encoding="UTF-8" standalone="no"?>
<svg
   width="32"
   height="32"
   viewBox="0 0 32 32"
   fill="none"
   version="1.1"
   id="svg11"
   sodipodi:docname="icone_ai.svg"
   inkscape:version="1.1.2 (0a00cf5339, 2022-02-04)"
   xmlns:inkscape="http://www.inkscape.org/namespaces/inkscape"
   xmlns:sodipodi="http://sodipodi.sourceforge.net/DTD/sodipodi-0.dtd"
   xmlns="http://www.w3.org/2000/svg"
   xmlns:svg="http://www.w3.org/2000/svg">
  <sodipodi:namedview
     id="namedview13"
     pagecolor="#ffffff"
     bordercolor="#666666"
     borderopacity="1.0"
     inkscape:pageshadow="2"
     inkscape:pageopacity="0.0"
     inkscape:pagecheckerboard="0"
     showgrid="false"
     inkscape:zoom="15.578446"
     inkscape:cx="15.277519"
     inkscape:cy="16.015718"
     inkscape:current-layer="svg11"
     width="32px" />
  <defs
     id="defs9">
    <clipPath
       id="clip0_25207_755">
      <rect
         width="22"
         height="35.538502"
         fill="#ffffff"
         transform="translate(0,0.461548)"
         id="rect6"
         x="0"
         y="0" />
    </clipPath>
  </defs>
  <path
     id="path2897"
     style="fill:#2a7ae4;fill-opacity:1;stroke-width:0.0546875"
     d="m 10.753465,20.19008 0.468309,-1.421875 h 2.177864 2.177864 l 0.471015,1.367187 c 0.259058,0.751953 0.490924,1.397949 0.515258,1.435547 0.0653,0.10089 2.654631,0.09856 2.693382,-0.0024 0.01494,-0.03893 -0.94042,-2.801332 -2.123019,-6.138671 L 14.983957,9.3619779 h -1.611119 -1.611119 l -0.03745,0.412726 c -0.046,0.5069981 0.02813,0.2812921 -2.1427562,6.5237661 -0.9815525,2.822493 -1.7846415,5.179303 -1.7846415,5.237355 0,0.101613 0.04641,0.105002 1.2441405,0.09085 l 1.2441402,-0.0147 z m 1.190534,-3.828137 c -0.01505,-0.01505 0.294144,-1.10941 0.687089,-2.431921 0.392944,-1.322512 0.729313,-2.386862 0.747487,-2.365223 0.02595,0.0309 1.354307,4.332848 1.460159,4.728796 0.02389,0.08938 -0.07001,0.0957 -1.420897,0.0957 -0.795566,0 -1.458793,-0.01231 -1.473838,-0.02736 z m 11.152013,0.614256 0.01398,-4.635756 -1.299137,0.01466 -1.299137,0.01466 -0.01505,4.511719 c -0.0083,2.481445 -0.0015,4.567542 0.01497,4.63577 l 0.03001,0.124052 1.27019,-0.01468 1.27019,-0.01468 z m -0.813616,-5.703268 c 0.560868,-0.16656 0.933458,-0.655002 0.977981,-1.2820701 0.03154,-0.444201 -0.04899,-0.74976 -0.276042,-1.047449 -0.608597,-0.797923 -1.97754,-0.660658 -2.460174,0.246685 -0.171292,0.322024 -0.172849,1.0588641 -0.0029,1.3749831 0.173349,0.322455 0.464669,0.575422 0.793419,0.688964 0.359309,0.124097 0.59777,0.128751 0.967722,0.01889 z M 7.900315,2 h 16.19937 C 27.368459,2 30,4.6315406 30,7.9003153 V 24.099685 C 30,27.368459 27.368459,30 24.099685,30 H 7.900315 C 4.631541,30 2,27.368459 2,24.099685 V 7.9003153 C 2,4.6315406 4.631541,2 7.900315,2 Z" />
</svg>
