<?xml version="1.0" encoding="UTF-8" standalone="no"?>
<!-- Created with Inkscape (http://www.inkscape.org/) -->

<svg
   width="67mm"
   height="52mm"
   viewBox="0 0 67 52"
   version="1.1"
   id="svg5"
   inkscape:version="1.1.2 (0a00cf5339, 2022-02-04)"
   sodipodi:docname="netopaiva_sign.svg"
   inkscape:export-filename="/home/emcasa/Documentos/neto.png"
   inkscape:export-xdpi="96"
   inkscape:export-ydpi="96"
   xmlns:inkscape="http://www.inkscape.org/namespaces/inkscape"
   xmlns:sodipodi="http://sodipodi.sourceforge.net/DTD/sodipodi-0.dtd"
   xmlns="http://www.w3.org/2000/svg"
   xmlns:svg="http://www.w3.org/2000/svg">
  <sodipodi:namedview
     id="namedview7"
     pagecolor="#ffffff"
     bordercolor="#111111"
     borderopacity="1"
     inkscape:pageshadow="0"
     inkscape:pageopacity="0"
     inkscape:pagecheckerboard="1"
     inkscape:document-units="mm"
     showgrid="false"
     inkscape:zoom="3.4090545"
     inkscape:cx="139.77483"
     inkscape:cy="98.414384"
     inkscape:current-layer="layer1" />
  <defs
     id="defs2" />
  <g
     inkscape:label="Camada 1"
     inkscape:groupmode="layer"
     id="layer1">
    <path
       style="fill:#414141;stroke-width:0.485306;fill-opacity:1"
       d="m 53.02473,50.346773 c -2.929751,-2.931597 -2.348193,-7.8745 1.095891,-9.314437 3.143331,-1.314244 7.316801,0.449694 8.979974,3.794644 0.813255,1.635753 0.820271,1.869 0.09803,3.267064 -1.14052,2.206807 -3.404352,3.400434 -6.453587,3.402566 -2.058123,0.0014 -2.798052,-0.227284 -3.720048,-1.149837 z m 6.303682,-1.007686 c 2.289093,-0.957045 3.06968,-2.716142 1.958329,-4.413385 -0.971277,-1.483294 -3.684488,-2.804734 -4.37437,-2.130594 -0.253475,0.247974 -0.830522,0.450498 -1.282276,0.450498 -0.451731,0 -0.947035,0.32771 -1.100633,0.727996 -0.15357,0.400252 -0.613565,0.727963 -1.022214,0.727963 -1.572268,0 -0.61811,3.627363 1.222452,4.647249 1.539885,0.853311 2.538632,0.851179 4.598712,-0.0093 z M 11.490454,49.088023 C 9.4118721,47.980982 6.7901108,45.158548 4.3462764,41.397136 L 2.5506553,38.633379 2.4037216,41.473848 c -0.1046222,2.022231 0.05339,3.001113 0.5472754,3.398216 0.473165,0.380335 0.6175527,1.149191 0.453401,2.415539 C 3.1761745,49.047999 2.1860559,50.079034 1.4381937,49.335036 1.2495656,49.147588 0.96311732,45.788929 0.80167602,41.87172 0.64023695,37.954603 0.42190077,34.33633 0.31655689,33.831049 -0.07254082,31.964859 1.3044135,32.580476 2.5800239,34.842971 3.3037975,36.12668 4.5757912,38.378546 5.4066034,39.847016 7.083243,42.810607 12.288628,48.285717 13.007134,47.841368 13.77577,47.366136 13.534009,44.316072 12.005516,35.205976 9.753684,21.785002 9.4387312,0.2819414 11.494023,0.2819414 c 0.585759,0 0.67628,1.6090434 0.573332,10.1947136 -0.130608,10.897715 0.358417,17.60475 1.919817,26.329132 1.148596,6.417825 1.131112,12.915486 -0.03506,13.094166 -0.400256,0.06393 -1.507869,-0.303874 -2.461364,-0.81193 z M 41.675503,47.00757 c -0.883736,-4.65218 -0.909965,-5.2112 -0.284641,-6.066922 0.69883,-0.956244 0.636908,-0.997866 2.073116,1.394078 0.9304,1.549507 0.969401,1.831758 0.326787,2.365326 -1.042285,0.865607 -0.901203,1.577886 0.240719,1.215242 1.217059,-0.386724 1.303111,0.739954 0.186778,2.444419 -1.232436,1.882066 -2.006576,1.470475 -2.542759,-1.352143 z m -23.357284,1.624305 c 0,-0.99957 2.014821,-1.522704 7.377213,-1.915481 5.805017,-0.424989 7.177462,-0.15719 7.177462,1.400532 0,1.003057 -1.177003,1.312022 -1.710092,0.44892 -0.187484,-0.303873 -1.408358,-0.405875 -3.060852,-0.256004 -8.203813,0.743901 -9.783731,0.795744 -9.783731,0.321318 z m -0.524402,-6.162471 c -0.576279,-0.694491 1.12402,-2.309339 1.768188,-1.679455 0.249889,0.243961 2.419157,0.521464 4.820675,0.617166 3.434016,0.135565 4.366402,0.324499 4.366402,0.884163 0,0.581279 -0.962054,0.711229 -5.256395,0.711229 -3.22561,0 -5.427353,-0.205672 -5.69887,-0.533412 z m 2.363861,-5.461496 c -2.898414,-0.339666 -4.338513,-1.165398 -3.498624,-2.005805 0.31061,-0.310945 1.143568,-0.288741 2.401522,0.06393 1.304911,0.365977 4.50749,0.427365 9.93109,0.19054 4.402784,-0.192089 12.043994,-0.437748 16.98046,-0.545396 5.257554,-0.114884 10.675688,-0.514297 13.080178,-0.963437 4.429576,-0.827808 7.032153,-0.629888 7.492089,0.569297 0.478903,1.248102 0.388066,1.285005 -2.317221,0.946791 -1.610741,-0.201659 -4.15961,-0.04785 -6.670914,0.39148 -2.463775,0.435368 -8.936428,0.82605 -16.436875,0.993088 -6.804957,0.151623 -13.682041,0.367578 -15.282406,0.480017 -1.600373,0.112407 -4.156052,0.0559 -5.679299,-0.120433 z"
       id="path1162"
       inkscape:export-filename="/home/emcasa/Documentos/neto.webp"
       inkscape:export-xdpi="96"
       inkscape:export-ydpi="96" />
  </g>
</svg>
