<?xml version="1.0" encoding="UTF-8" standalone="no"?>
<!-- Created with Inkscape (http://www.inkscape.org/) -->

<svg
   width="64"
   height="64"
   viewBox="0 0 16.933333 16.933334"
   version="1.1"
   id="svg10"
   inkscape:version="1.1.2 (0a00cf5339, 2022-02-04)"
   sodipodi:docname="netopaiva_icon.svg"
   xmlns:inkscape="http://www.inkscape.org/namespaces/inkscape"
   xmlns:sodipodi="http://sodipodi.sourceforge.net/DTD/sodipodi-0.dtd"
   xmlns="http://www.w3.org/2000/svg"
   xmlns:svg="http://www.w3.org/2000/svg">
  <sodipodi:namedview
     id="namedview12"
     pagecolor="#ffffff"
     bordercolor="#666666"
     borderopacity="1.0"
     inkscape:pageshadow="2"
     inkscape:pageopacity="0.0"
     inkscape:pagecheckerboard="0"
     inkscape:document-units="px"
     showgrid="false"
     units="px"
     width="320px"
     inkscape:zoom="3.2068514"
     inkscape:cx="53.323331"
     inkscape:cy="27.597163"
     inkscape:current-layer="layer1"
     inkscape:snap-global="false"
     inkscape:snap-page="true" />
  <defs
     id="defs7" />
  <g
     inkscape:label="Camada 1"
     inkscape:groupmode="layer"
     id="layer1">
    <rect
       style="font-variation-settings:normal;vector-effect:none;fill:#414141;fill-opacity:1;fill-rule:evenodd;stroke:none;stroke-width:0.0352777;stroke-linecap:butt;stroke-linejoin:miter;stroke-miterlimit:4;stroke-dasharray:none;stroke-dashoffset:0;stroke-opacity:1;-inkscape-stroke:none;stop-color:#000000"
       id="rect30-3"
       width="16.933334"
       height="16.933334"
       x="0"
       y="0" />
    <path
       id="rect30"
       style="font-variation-settings:normal;opacity:1;vector-effect:none;fill:#ffffff;fill-opacity:1;fill-rule:evenodd;stroke:none;stroke-width:0.133333;stroke-linecap:butt;stroke-linejoin:miter;stroke-miterlimit:4;stroke-dasharray:none;stroke-dashoffset:0;stroke-opacity:1;-inkscape-stroke:none;stop-color:#000000;stop-opacity:1"
       d="M 31.511719 0 C 32.169481 6.8782759 32.970033 13.537468 33.917969 19.570312 C 35.757923 31.280448 36.814646 39.092557 37.183594 44.0625 C 37.368076 46.547475 37.378396 48.326307 37.246094 49.462891 C 37.141476 50.361549 36.993962 50.494542 36.929688 50.609375 C 36.5353 50.384126 35.940567 49.946569 35.244141 49.345703 C 33.828457 48.124269 31.991446 46.259298 30.085938 44.119141 C 26.27492 39.838826 22.148947 34.409417 20.224609 30.777344 C 18.222971 26.999498 15.15374 21.20845 13.410156 17.90625 C 11.812017 14.879485 10.314984 12.902928 8.6445312 12.105469 C 8.2269176 11.906104 7.7467418 11.764112 7.1953125 11.871094 C 6.6438836 11.978076 6.1290222 12.404299 5.8886719 12.865234 C 5.4079712 13.787106 5.5006621 14.7592 5.7578125 16.076172 C 5.7852141 16.216506 5.8824503 17.097553 5.9726562 18.298828 C 6.062866 19.500103 6.1638557 21.096518 6.2695312 22.966797 C 6.48089 26.707354 6.7100397 31.550885 6.9042969 36.583984 C 7.099347 41.637582 7.3705219 46.331888 7.6503906 49.835938 C 7.7903239 51.58796 7.9330898 53.041476 8.0722656 54.111328 C 8.1418505 54.646256 8.2053088 55.081473 8.2792969 55.435547 C 8.3162984 55.61258 8.3583238 55.767041 8.4101562 55.925781 C 8.4619925 56.084559 8.4515054 56.231682 8.7558594 56.554688 C 9.3886827 57.226933 10.284312 57.625623 11.158203 57.535156 C 12.032094 57.444674 12.759379 56.951422 13.333984 56.3125 C 14.483196 55.034661 15.225223 53.057349 15.521484 50.617188 C 15.727692 48.918517 15.754259 47.508485 15.542969 46.306641 C 15.331689 45.104796 14.854532 44.071836 14.03125 43.365234 C 13.752564 43.12596 13.421785 42.549104 13.230469 41.28125 C 13.039152 40.013392 12.994921 38.134159 13.119141 35.570312 L 13.291016 32.103516 L 15.619141 35.929688 C 21.566605 45.704444 27.86857 53.070963 33.255859 56.134766 L 33.525391 56.285156 L 33.585938 56.285156 C 34.700542 56.895338 35.866485 57.448601 36.914062 57.818359 C 38.065872 58.224912 38.937087 58.533015 39.966797 58.357422 C 40.873218 58.204124 41.404087 57.511555 41.748047 56.818359 C 42.09342 56.122299 42.331779 55.282964 42.521484 54.275391 C 42.9009 52.260249 43.079867 49.571538 43.087891 46.376953 C 43.103935 39.987771 42.41236 31.634382 41.017578 23.3125 C 39.641323 15.101136 38.616123 7.5949274 37.880859 0 L 31.511719 0 z M 48.363281 17.125 C 47.223436 17.092572 46.172969 17.264006 45.429688 18.058594 C 44.742894 18.792416 44.3682 19.838648 44.642578 20.785156 C 44.916934 21.731665 45.630385 22.392833 46.513672 22.933594 C 48.053417 23.876252 50.61475 24.452859 53.542969 24.908203 L 53.542969 25.066406 L 54.578125 25.197266 C 57.121974 25.511693 60.708107 25.675985 64 25.662109 L 64 18.673828 C 58.010135 18.695669 54.134193 18.412434 52.417969 17.898438 C 50.840311 17.426183 49.503122 17.157421 48.363281 17.125 z M 52.447266 32.226562 C 52.082449 32.214275 51.725142 32.270231 51.410156 32.373047 C 50.570194 32.647225 49.839351 33.173248 49.212891 33.808594 C 48.81581 34.211311 48.584014 34.728703 48.302734 35.216797 L 47.845703 34.630859 L 47.845703 35.929688 C 47.830963 35.968866 47.791063 35.993601 47.777344 36.033203 C 47.714074 36.215932 47.880928 36.432454 47.845703 36.632812 L 47.845703 38.076172 L 48.005859 38.021484 C 48.089803 38.286278 47.910922 38.56303 48.095703 38.800781 L 50.207031 41.521484 L 50.207031 39.816406 C 50.986944 39.993855 51.936214 40.134965 53.107422 40.251953 C 55.550463 40.495959 58.848558 40.630859 62.761719 40.630859 C 63.217177 40.630859 63.5751 40.626231 64 40.625 L 64 34.117188 C 61.49665 33.986472 59.13546 33.77454 57.3125 33.525391 C 56.284525 33.384895 55.423234 33.228167 54.820312 33.083984 C 54.51882 33.01189 54.283312 32.943081 54.144531 32.890625 C 54.005747 32.838165 53.963303 32.750507 54.144531 32.939453 C 53.681024 32.455492 53.055293 32.247041 52.447266 32.226562 z M 64 48.177734 C 59.616676 48.605734 56.348238 49.10045 54.019531 49.746094 C 52.525034 50.160451 51.390026 50.630314 50.533203 51.287109 C 49.676377 51.943908 49.109371 52.91742 49.109375 53.931641 C 49.109375 54.390883 49.400237 54.972981 49.779297 55.263672 C 50.158349 55.554355 50.544272 55.664504 50.974609 55.748047 C 51.835291 55.91514 52.964493 55.932322 54.710938 55.871094 C 56.79282 55.798105 59.875466 55.569528 64 55.208984 L 64 48.177734 z "
       transform="scale(0.26458334)" />
  </g>
</svg>
